<svg width="14" height="13" viewBox="0 0 14 13" fill="none" xmlns="http://www.w3.org/2000/svg">
<path d="M7.22648 1.97968C6.51572 1.32613 5.5854 0.963409 4.61984 0.963379C4.10878 0.963911 3.60287 1.0655 3.13122 1.26231C2.65958 1.45912 2.23151 1.74726 1.87165 2.11014C0.336756 3.65156 0.337408 6.06251 1.87295 7.5974L6.65571 12.3802C6.7666 12.5752 6.98056 12.7011 7.22648 12.7011C7.32746 12.7001 7.4268 12.6755 7.51652 12.6291C7.60625 12.5828 7.68386 12.5161 7.74311 12.4343L12.58 7.5974C14.1156 6.06185 14.1156 3.65156 12.5787 2.10754C12.219 1.74532 11.7913 1.45776 11.3201 1.26141C10.8489 1.06505 10.3436 0.96377 9.83312 0.963379C8.86759 0.963537 7.93731 1.32624 7.22648 1.97968ZM11.6563 3.02991C12.6759 4.05469 12.6766 5.65546 11.6576 6.67503L7.22648 11.1062L2.79532 6.67503C1.77641 5.65546 1.77706 4.05469 2.79402 3.03251C3.28978 2.53937 3.93817 2.268 4.61984 2.268C5.30151 2.268 5.9473 2.53937 6.43914 3.03121L6.7653 3.35737C6.82582 3.418 6.89771 3.4661 6.97685 3.49891C7.05598 3.53173 7.14081 3.54863 7.22648 3.54863C7.31215 3.54863 7.39698 3.53173 7.47612 3.49891C7.55525 3.4661 7.62714 3.418 7.68767 3.35737L8.01382 3.03121C9.00012 2.04687 10.6713 2.04948 11.6563 3.02991Z" fill="#5041BC"/>
</svg>
