<svg width="14" height="12" viewBox="0 0 14 12" fill="none" xmlns="http://www.w3.org/2000/svg">
<path d="M6.5056 1.0163C5.79484 0.362754 4.86451 3.03675e-05 3.89895 0C3.38789 0.000532093 2.88198 0.102126 2.41034 0.298934C1.93869 0.495743 1.51062 0.78388 1.15076 1.14677C-0.38413 2.68818 -0.383478 5.09913 1.15207 6.63402L5.93482 11.4168C6.04572 11.6118 6.25967 11.7377 6.5056 11.7377C6.60657 11.7367 6.70591 11.7121 6.79564 11.6657C6.88536 11.6194 6.96297 11.5527 7.02223 11.4709L11.8591 6.63402C13.3947 5.09848 13.3947 2.68818 11.8578 1.14416C11.4981 0.781938 11.0704 0.494386 10.5992 0.298031C10.128 0.101676 9.6227 0.000391131 9.11224 0C8.1467 0.000157833 7.21642 0.362864 6.5056 1.0163Z" fill="#ED5656"/>
</svg>
