<svg width="13" height="16" viewBox="0 0 13 16" fill="none" xmlns="http://www.w3.org/2000/svg">
<path d="M6.68684 0.125C5.0464 0.126935 3.47371 0.779452 2.31375 1.93941C1.15379 3.09938 0.50127 4.67207 0.499335 6.3125C0.49737 7.65306 0.935262 8.95725 1.74584 10.025C1.74584 10.025 1.91459 10.2472 1.94215 10.2793L6.68684 15.875L11.4338 10.2764C11.4585 10.2466 11.6278 10.025 11.6278 10.025L11.6284 10.0233C12.4386 8.95603 12.8763 7.65245 12.8743 6.3125C12.8724 4.67207 12.2199 3.09938 11.0599 1.93941C9.89996 0.779452 8.32727 0.126935 6.68684 0.125ZM6.68684 8.5625C6.24183 8.5625 5.80681 8.43054 5.4368 8.18331C5.06679 7.93607 4.7784 7.58467 4.60811 7.17354C4.43781 6.7624 4.39325 6.31 4.48007 5.87355C4.56688 5.43709 4.78118 5.03618 5.09584 4.72151C5.41051 4.40684 5.81142 4.19255 6.24788 4.10573C6.68434 4.01892 7.13674 4.06347 7.54787 4.23377C7.95901 4.40407 8.31041 4.69246 8.55764 5.06247C8.80487 5.43248 8.93684 5.86749 8.93684 6.3125C8.93609 6.90901 8.6988 7.48087 8.277 7.90267C7.85521 8.32446 7.28334 8.56176 6.68684 8.5625Z" fill="#5041BC"/>
</svg>
